<svg t="1595470149087" class="icon" viewBox="0 0 1024 1024" version="1.1" xmlns="http://www.w3.org/2000/svg" p-id="2409" width="200" height="200"><path d="M912 288.37v-0.66a19 19 0 0 0-19-19H131.05a19 19 0 0 0-19.05 19c0 2.84 0 5.69 0.09 8.53v0.64q0.09 4.38 0.29 8.74a400.44 400.44 0 0 0 243.92 350.6q6.6 2.79 13.29 5.34v84.25a9.52 9.52 0 0 0 9.52 9.52h265.78a9.52 9.52 0 0 0 9.52-9.52v-84.25q6.68-2.55 13.29-5.34a399.56 399.56 0 0 0 244.19-359.14v-0.43c0.11-2.75 0.11-5.51 0.11-8.28z m-19.15 8.38c-0.06 2.54-0.15 5.07-0.25 7.6l-0.06 1.24q-0.18 3.82-0.43 7.63c0 0.29 0 0.58-0.06 0.88q-0.56 8.17-1.46 16.26v0.25q-0.45 4-1 8c0 0.18-0.05 0.37-0.08 0.56a345.6 345.6 0 0 1-1.16 7.95c0 0.12 0 0.23-0.05 0.34q-0.64 4-1.36 8.09H137.08q-0.72-4.05-1.37-8.11v-0.3q-0.63-4-1.17-8c0-0.18-0.05-0.36-0.07-0.54q-0.54-4-1-8v-0.23q-0.9-8.08-1.46-16.27l-0.06-0.88c-0.16-2.54-0.31-5.08-0.42-7.63l-0.06-1.24q-0.16-3.8-0.25-7.6v-1.06q-0.09-4-0.09-8H893q0 4-0.09 8c-0.06 0.31-0.06 0.7-0.07 1.06zM379.07 665z m9.57 71.25v-68a402.5 402.5 0 0 0 246.72 0v68z m-4.88-69.63h0.1z m256.38 0h0.1z m4.78-1.65zM512 668.6c-180.49 0-331.66-125.5-371-294h742c-39.34 168.5-190.51 294-371 294z" p-id="2410" fill="#2D6CDF"></path></svg>